<svg version="1" xmlns="http://www.w3.org/2000/svg" width="173.333" height="173.333" viewBox="0 0 130.000000 130.000000"><path d="M56.8 5.5c-2.6.7-6.3 2.3-8.3 3.5-3.7 2.3-9.5 9.3-9.5 11.4 0 .6-2.1 1.2-4.9 1.3-13.3.5-23.4 10.9-24.7 25.5-.6 6.7 1.1 13.5 4.3 17 .9 1 1.2 1.8.6 1.8-2.3 0-4.8 8.4-4.8 16 0 9 2.6 14.9 9.1 21 4.4 4.2 12.3 7.1 17.6 6.5 2-.2 2.8.2 3.2 1.8.3 1.2 1.9 3.8 3.5 5.7 10.9 13.3 36.4 11.7 44.8-2.7 2.3-4 3.3-4.8 5.8-4.8 9.7-.2 17.3-4.9 22.7-14.3 3-5.2 3.3-6.5 3.3-13.7 0-6.5-.4-8.7-2.3-11.9l-2.3-3.8 2.6-5.1c4.6-9.3 2.6-21.9-4.7-30.2-5.1-5.8-13.3-9.6-19.6-9-2.6.2-3.3-.2-4-2.4-3.6-10.4-19.3-17-32.4-13.6zm1.9 54.7c1 1.1 1.7 2.2 1.6 2.4-1.3 2 3.4 4.7 5.9 3.3.8-.5 2.1-2.2 2.8-3.9.7-1.6 1.8-3.1 2.4-3.2 3.4-.4 4.2-.3 5.4.5.6.5 1.2 2.8 1.2 5.2 0 4.5-1.1 5.9-7 8.8-1.9.9-4.2 2.2-5 2.8-1.2.8-3.1.2-8.5-2.8-6.8-3.7-7-3.9-7.3-8.1-.2-2.4.2-4.9.8-5.6 1.6-2 5.7-1.6 7.7.6z"/></svg>